<svg xmlns="http://www.w3.org/2000/svg" style="display: none;"><symbol id="connection" viewBox="0 0 480.21 480.21"><title>connection</title><path d="M372.189,256.191l-51.928-66.104c18.439-18.904,29.574-43.737,31.424-70.08h80.408v8.8 c-18.613,3.825-31.979,20.198-32,39.2c0.005,22.091,17.917,39.996,40.008,39.992s39.996-17.917,39.992-40.008 c-0.004-19.005-13.379-35.383-32-39.184v-16.8c0-4.418-3.582-8-8-8h-88.408c-1.564-22.165-9.728-43.355-23.44-60.84l11.16-11.16 h94.16c4.418,12.497,18.131,19.046,30.627,14.627c12.497-4.418,19.046-18.131,14.627-30.627S460.689-3.039,448.193,1.379 c-6.835,2.416-12.211,7.793-14.627,14.627h-97.472c-2.122,0-4.156,0.844-5.656,2.344l-12.92,12.92 c-44.458-42.816-115.208-41.485-158.025,2.973c-18.198,18.896-29.169,43.592-30.991,69.763h-67.2L35.149,45.183 C46.84,39.03,51.33,24.566,45.178,12.875S24.561-3.305,12.87,2.847C1.18,8.999-3.31,23.463,2.842,35.154 c3.233,6.144,8.977,10.581,15.739,12.156l30.2,67.952c1.286,2.887,4.152,4.746,7.312,4.744h72.408 c1.842,26.04,12.762,50.608,30.856,69.424l-67.536,67.536c-43.669-6.543-84.374,23.553-90.917,67.222 c-6.543,43.669,23.553,84.374,67.222,90.917c1.318,0.198,2.641,0.362,3.967,0.493v40.408c0,4.418,3.582,8,8,8h73.472 c4.418,12.497,18.131,19.046,30.627,14.627s19.046-18.131,14.627-30.627s-18.131-19.046-30.627-14.627 c-6.835,2.416-12.211,7.793-14.627,14.627H88.093v-32.408c43.938-4.38,76.007-43.55,71.627-87.489 c-2.964-29.732-22.26-55.331-50.027-66.367l61.6-61.6c40.116,31.586,96.582,31.813,136.952,0.552l44.384,56.496 c-61.285,8.549-104.036,65.16-95.487,126.444c8.549,61.285,65.16,104.036,126.444,95.487 c61.285-8.549,104.036-65.16,95.487-126.444C471.565,298.847,426.504,258.17,372.189,256.191z M464.093,168.007 c0,13.255-10.745,24-24,24s-24-10.745-24-24s10.745-24,24-24S464.093,154.752,464.093,168.007z M456.093,16.007 c4.418,0,8,3.582,8,8s-3.582,8-8,8s-8-3.582-8-8S451.675,16.007,456.093,16.007z M24.093,32.007c-4.418,0-8-3.582-8-8s3.582-8,8-8 s8,3.582,8,8S28.511,32.007,24.093,32.007z M176.093,448.007c4.418,0,8,3.582,8,8s-3.582,8-8,8s-8-3.582-8-8 S171.675,448.007,176.093,448.007z M112.093,391.351c-19.771,11.546-44.229,11.546-64,0v-15.344c0-17.673,14.327-32,32-32 s32,14.327,32,32V391.351z M64.093,312.007c0-8.837,7.163-16,16-16s16,7.163,16,16s-7.163,16-16,16S64.093,320.843,64.093,312.007 z M128.093,293.535c10.342,11.727,16.034,26.835,16,42.472c-0.003,15.546-5.694,30.553-16,42.192v-2.192 c-0.01-17.49-9.533-33.591-24.856-42.024c12.203-12.784,11.731-33.04-1.053-45.243c-12.784-12.202-33.04-11.731-45.243,1.053 c-11.803,12.365-11.803,31.824,0,44.189c-15.32,8.435-24.839,24.535-24.848,42.024v2.192 c-23.379-26.51-20.841-66.953,5.668-90.332C64.271,264.487,104.714,267.025,128.093,293.535z M296.093,189.799 c-33.397,24.246-78.603,24.246-112,0v-19.392c0-14.58,11.82-26.4,26.4-26.4h17.76l-11.608,29.024 c-1.189,2.973-0.49,6.37,1.776,8.632l16,16c3.124,3.123,8.188,3.123,11.312,0l16-16c2.266-2.263,2.965-5.659,1.776-8.632 l-11.6-29.024h17.784c14.58,0,26.4,11.82,26.4,26.4V189.799z M241.238,59.887c-0.3,0.5-0.544,1.03-0.728,1.583 c-4.048,12.136-25.903,16.736-39.975,18.072c2.146-26.81,14.762-39.536,39.559-39.536c22.704,0,35.2,10.736,38.776,33.136 l-26.656-16C248.424,54.87,243.51,56.099,241.238,59.887z M251.125,75.159l28.592,17.16 c-3.208,19.584-27.344,35.688-39.624,35.688c-17.843-3.039-32.686-15.412-38.888-32.416 C214.901,94.463,239.629,90.311,251.125,75.159z M246.701,174.079l-6.608,6.616l-6.608-6.616l6.608-16.536L246.701,174.079z M274.997,128.375c12.48-9.821,20.159-24.515,21.096-40.368c0-52.896-30.456-64-56-64s-56,11.104-56,64 c0.93,15.862,8.61,30.566,21.096,40.392c-21.206,2.613-37.127,20.641-37.096,42.008v4.864 c-35.069-39.764-31.263-100.429,8.502-135.498C216.36,4.704,277.024,8.51,312.093,48.274c32,36.285,32,90.711,0,126.996v-4.864 C312.136,149.031,296.212,130.988,274.997,128.375z M424.093,445.799c-33.397,24.246-78.603,24.246-112,0v-19.392 c0-14.58,11.82-26.4,26.4-26.4h17.76l-11.608,29.024c-1.189,2.973-0.49,6.369,1.776,8.632l16,16c3.124,3.123,8.188,3.123,11.312,0 l16-16c2.266-2.263,2.965-5.659,1.776-8.632l-11.6-29.024h17.784c14.58,0,26.4,11.82,26.4,26.4V445.799z M379.125,331.159l0-0.008 l28.592,17.16c-3.208,19.592-27.344,35.696-39.624,35.696c-17.843-3.039-32.686-15.412-38.888-32.416 C342.901,350.463,367.629,346.31,379.125,331.159z M328.533,335.543L328.533,335.543c2.144-26.808,14.76-39.536,39.56-39.536 c22.704,0,35.2,10.736,38.776,33.136l-26.656-16c-3.789-2.273-8.703-1.044-10.976,2.745c-0.3,0.5-0.544,1.03-0.728,1.583 C364.461,329.607,342.605,334.207,328.533,335.543z M374.701,430.079l-6.608,6.616l-6.608-6.616l6.608-16.536L374.701,430.079z M440.093,431.294v-4.888c0.043-21.376-15.881-39.418-37.096-42.032c12.48-9.821,20.159-24.515,21.096-40.368 c0-52.896-30.456-64-56-64s-56,11.104-56,64c0.93,15.862,8.61,30.566,21.096,40.392c-21.206,2.613-37.127,20.641-37.096,42.008 v4.864c-34.987-39.795-31.089-100.419,8.706-135.406c39.795-34.987,100.419-31.089,135.406,8.706 c15.416,17.534,23.909,40.088,23.888,63.435C464.088,391.325,455.552,413.836,440.093,431.294z"/></symbol><symbol id="goal" viewBox="-26 0 512 512.001"><title>goal</title><path d="m457.085938 68.828125-21.878907-19.265625 21.878907-19.261719c3.402343-3 4.566406-7.675781 2.96875-11.917969-1.605469-4.246093-5.570313-6.988281-10.105469-6.988281h-90.539063v-3.890625c0-4.144531-3.359375-7.503906-7.503906-7.503906s-7.503906 3.359375-7.503906 7.503906v101.203125l-61.628906 33.464844c-.339844-2.710937-1.152344-5.375-2.4375-7.882813l-8.683594-16.953124c-5.960938-11.640626-20.28125-16.253907-31.914063-10.296876l-6.714843 3.4375c-5.640626 2.890626-9.816407 7.796876-11.761719 13.828126-1.945313 6.027343-1.425781 12.453124 1.464843 18.089843l8.683594 16.957031c2.027344 3.957032 5.023438 7.089844 8.546875 9.285157-4.609375 6.207031-6.796875 13.839843-9.046875 21.769531l-1.617187 5.726562c-1.128907 3.988282 1.191406 8.136719 5.179687 9.261719.679688.195313 1.367188.285157 2.042969.285157 3.273437 0 6.28125-2.15625 7.21875-5.464844l1.617187-5.714844c3.289063-11.597656 5.308594-17.808594 11.738282-21.300781l11.527344-6.261719 1.421874-.726562c.472657-.242188.914063-.515626 1.363282-.785157l82.15625-44.613281c-.519532 10.269531-6.046875 19.972656-15.148438 25.5l-53.425781 32.460938c-.0625.035156-.125.070312-.183594.109374l-16.628906 10.101563c-3.539063 2.152344-4.667969 6.769531-2.515625 10.3125 2.027344 3.339844 6.246094 4.527344 9.6875 2.851563l-12.617188 38.140624-9.222656 3.78125-25.078125 10.277344 7.226563-25.546875c1.125-3.988281-1.191406-8.136719-5.179688-9.265625-3.992187-1.132812-8.136718 1.191406-9.265625 5.179688l-11.417969 40.378906c-.148437.519531-.246093 1.089844-.269531 1.632812l-2.988281 54.890626c-.089844 2.09375.355469 6.050781-.613281 8.09375l-33.1875 69.820312h-24.117188c-14.128906 0-25.621093 11.492188-25.621093 25.617188v21.660156c-3.234376-1.480469-6.824219-2.308594-10.609376-2.308594h-61.246093c-14.125 0-25.617188 11.488281-25.617188 25.617188v26.875h-18.015625c-4.144531 0-7.503906 3.359374-7.503906 7.503906 0 4.144531 3.359375 7.503906 7.503906 7.503906h442.4375c4.144532 0 7.503906-3.359375 7.503906-7.503906 0-4.144532-3.359374-7.503906-7.503906-7.503906h-19.515625v-193.417969c0-14.125-11.492187-25.617188-25.617187-25.617188h-45.398438v-130.910156c8.320313-11.277344 11.402344-26.058594 7.539063-40.105469-.605469-2.207031-2.1875-4.019531-4.296875-4.914062-1.035156-.441406-2.144532-.636719-3.242188-.59375v-13.699219h90.535156c4.539063 0 8.503907-2.742187 10.105469-6.984375 1.601563-4.242188.4375-8.921875-2.964843-11.921875zm-221.539063 60.085937c.714844-2.214843 2.246094-4.019531 4.316406-5.078124l6.714844-3.4375c1.265625-.648438 2.617187-.957032 3.953125-.957032 3.164062 0 6.222656 1.730469 7.761719 4.734375l8.6875 16.957031c2.027343 3.960938.714843 8.761719-2.890625 11.1875l-2.445313 1.324219-5.160156 2.644531c-4.269531 2.1875-9.527344.492188-11.714844-3.78125l-8.6875-16.953124c-1.058593-2.070313-1.25-4.429688-.535156-6.640626zm-15.078125 272.925782c-2.550781-1.164063-5.324219-1.925782-8.238281-2.195313l8.238281-10.941406zm35.628906-60.464844c3.609375-4.324219 4.605469-9.375 5.410156-13.445312.203126-.96875 3.90625-21.195313 3.90625-21.195313s3.503907 2.183594 3.871094 2.339844c.253906.113281.433594.363281.460938.65625l4.082031 41.496093h-25.148437zm44.375-41.417969-6.335937 51.234375h-5.230469l-4.222656-42.929687c-.539063-5.5-3.90625-10.300781-8.839844-12.6875l-7.546875-4.785157 5.027344-27.863281s21.179687 25.160157 21.671875 25.800781c4.382812 5.699219 5.882812 7.980469 5.476562 11.230469zm-81.054687 36.316407c1.515625-4.5625 2.21875-9.207032 2.101562-13.929688l2.726563-50.0625 34.707031-14.222656-6.308594 34.945312c-.019531.09375-.039062.191406-.050781.285156l-5.21875 28.894532c-.679688 2.992187-1.273438 7.53125-3.140625 9.996094l-50.707031 67.351562h-4.179688zm-178.890625 133.839843c0-5.847656 4.757812-10.605469 10.609375-10.605469h61.246093c5.851563 0 10.613282 4.757813 10.613282 10.605469v26.878907h-82.46875zm97.472656 0v-44.964843c0-5.851563 4.761719-10.609376 10.613281-10.609376h61.246094c5.851563 0 10.609375 4.757813 10.609375 10.609376v71.84375h-82.464844v-26.878907zm277.417969-166.539062v193.417969h-82.464844v-44.992188c0-4.144531-3.359375-7.503906-7.503906-7.503906-4.148438 0-7.507813 3.359375-7.507813 7.503906v44.992188h-82.464844v-120.152344c0-5.847656 4.757813-10.605469 10.609376-10.605469h61.246093c5.851563 0 10.609375 4.757813 10.609375 10.605469v37.617187c0 4.144531 3.359375 7.503907 7.503906 7.503907 4.148438 0 7.503907-3.359376 7.503907-7.503907v-110.882812c0-5.851563 4.761719-10.609375 10.613281-10.609375h8.265625c.023437 0 .050781.003906.078125.003906.023438 0 .050781-.003906.074219-.003906h52.824219c5.851562 0 10.613281 4.761718 10.613281 10.609375zm-71.855469-25.617188c-14.125 0-25.617188 11.492188-25.617188 25.617188v49.960937c-2.6875-1.226562-5.617187-2.003906-8.699218-2.230468l6.121094-49.5c1.203124-9.648438-3.71875-16.042969-8.476563-22.230469-.503906-.65625-29.671875-35.289063-29.671875-35.289063l17.894531-54.101562 49.289063-29.945313v117.71875zm15.847656-205.234375v-46.316406h79.386719l-17.097656 15.054688c-2.328125 2.050781-3.664063 5.003906-3.664063 8.105468 0 3.101563 1.335938 6.054688 3.664063 8.105469l17.097656 15.054687h-79.386719zm0 0"/></symbol><symbol id="knowledge" viewBox="0 0 464.87 464.87"><title>knowledge</title><g> <g> <path d="M283.86,280.931c42.008-17.061,69.234-58.161,68.559-103.496c0-62.309-53.832-113-120-113s-120,50.691-120,113 c-0.675,45.335,26.55,86.435,68.559,103.496l0.93,0.504l6.353,10.424c-11.342,6.565-15.214,21.081-8.65,32.422 c0.863,1.491,1.886,2.884,3.051,4.154c-8.894,9.75-8.201,24.863,1.548,33.758c4.429,4.04,10.215,6.268,16.209,6.242h64 c13.197,0.058,23.942-10.594,24-23.791c0.026-5.995-2.202-11.781-6.242-16.209c8.859-9.657,8.211-24.667-1.446-33.525 c-1.27-1.165-2.662-2.188-4.154-3.051l6.353-10.424L283.86,280.931z M264.418,352.435h-64c-4.418,0-8-3.582-8-8s3.582-8,8-8h64 c4.418,0,8,3.582,8,8S268.836,352.435,264.418,352.435z M264.418,320.435h-64c-4.418,0-8-3.582-8-8s3.582-8,8-8h64 c4.418,0,8,3.582,8,8S268.836,320.435,264.418,320.435z M276.598,266.666l-3.199,1.738c-1.238,0.675-2.277,1.664-3.012,2.867 l-10.461,17.164h-3.508v-60.688l37.656-37.656l-11.312-11.313l-40,40c-1.5,1.5-2.343,3.534-2.344,5.656v64h-16v-64 c-0.001-2.122-0.844-4.156-2.344-5.656l-40-40l-11.312,11.312l37.656,37.656v60.688h-3.508l-10.461-17.164 c-0.735-1.203-1.774-2.192-3.012-2.867l-3.199-1.738c-0.257-0.137-0.52-0.261-0.789-0.371 c-36.169-14.551-59.637-49.878-59.031-88.859c0-53.484,46.652-97,104-97c57.348,0,104,43.516,104,97 c0.606,38.981-22.863,74.308-59.031,88.859C277.118,266.405,276.854,266.529,276.598,266.666z"/> </g> </g><g> <g> <rect x="80.417" y="57.602" transform="matrix(0.4472 -0.8944 0.8944 0.4472 -26.6442 125.7576)" width="16" height="53.664"/> </g> </g><g> <g> <rect x="348.101" y="76.448" transform="matrix(0.9486 -0.3164 0.3164 0.9486 -7.4586 122.956)" width="53.664" height="16"/> </g> </g><g> <g> <rect x="32.418" y="168.435" width="48" height="16"/> </g> </g><g> <g> <rect x="384.418" y="168.435" width="48" height="16"/> </g> </g><g> <g> <rect x="61.588" y="276.433" transform="matrix(0.8944 -0.4472 0.4472 0.8944 -117.8667 69.5699)" width="53.664" height="16"/> </g> </g><g> <g> <rect x="368.424" y="257.615" transform="matrix(0.4472 -0.8944 0.8944 0.4472 -46.3343 493.9232)" width="16" height="53.664"/> </g> </g><g> <g> <rect x="224.418" y="8.435" width="16" height="40"/> </g> </g><g> <g> <path d="M464.418,384.435v-16c-104.371,0-215.281,25.23-215.996,72h-32.008c-0.715-46.77-111.625-72-215.996-72v16 c117.199,0,199.037,29.414,199.957,56H0.418v16h464v-16H264.461C265.381,413.849,347.219,384.435,464.418,384.435z"/> </g> </g><g> <g> <rect x="68.435" y="344.309" transform="matrix(0.0526 -0.9986 0.9986 0.0526 -347.4305 474.6621)" width="16" height="152.24"/> </g> </g><g> <g> <rect x="312.314" y="412.43" transform="matrix(0.9986 -0.0527 0.0527 0.9986 -21.6328 21.071)" width="152.24" height="16"/> </g> </g></symbol><symbol id="application" viewBox="0 0 512 512"><title>application</title><g> <g> <path d="M211.67,316.199c13.614-13.042,22.116-31.378,22.116-51.675V225.41c6.185-8.131,9.867-18.266,9.867-29.248v-40.899 c0-5.523-4.477-10-10-10h-82.415c-33.443,0-60.652,27.208-60.652,60.652v58.609c0,20.296,8.503,38.633,22.116,51.675 c-55.747,1.979-100.489,47.939-100.489,104.16V502c0,5.523,4.477,10,10,10h279.946c5.523,0,10-4.477,10-10v-81.641 C312.159,364.139,267.417,318.179,211.67,316.199z M151.239,165.264h72.415v30.899c0,15.666-12.745,28.411-28.41,28.411h-84.656 v-1.317v-17.341h-0.001C110.587,183.5,128.823,165.264,151.239,165.264z M110.587,264.525v-19.952h84.656 c6.566,0,12.829-1.32,18.543-3.699v23.651c0,28.453-23.147,51.6-51.6,51.6C133.733,316.125,110.587,292.978,110.587,264.525z M202.747,336.125l-39.094,66.26l-39.094-66.26H202.747z M292.16,492h-0.001h-22.506v-69.936c0-5.523-4.477-10-10-10 s-10,4.477-10,10V492h-172v-69.936c0-5.523-4.477-10-10-10c-5.523,0-10,4.477-10,10V492H32.214v-71.641 c0-41.546,30.242-76.139,69.862-82.982l52.964,89.769c1.798,3.048,5.074,4.918,8.613,4.918s6.814-1.871,8.613-4.918l52.683-89.29 c38.314,7.894,67.211,41.888,67.211,82.504V492z"/> </g> </g><g> <g> <path d="M449.786,0h-56.549c-5.523,0-10,4.477-10,10s4.477,10,10,10h56.549c16.542,0,30,13.458,30,30v133.973 c0,16.542-13.458,30-30,30h-36.455c-2.651,0-5.194,1.053-7.069,2.927l-47.239,47.216v-40.144c0-5.523-4.477-10-10-10h-85.237 c-5.523,0-10,4.477-10,10s4.477,10,10,10h75.237v54.277c0,4.044,2.436,7.69,6.172,9.238c1.238,0.513,2.537,0.762,3.826,0.762 c2.602,0,5.159-1.016,7.072-2.928l61.38-61.35h32.314c27.57,0,50-22.43,50-50V50C499.786,22.43,477.357,0,449.786,0z"/> </g> </g><g> <g> <path d="M363.856,2.93c-1.86-1.86-4.44-2.93-7.07-2.93s-5.21,1.07-7.07,2.93c-1.86,1.86-2.93,4.44-2.93,7.07s1.07,5.21,2.93,7.07 s4.44,2.93,7.07,2.93s5.21-1.07,7.07-2.93s2.93-4.44,2.93-7.07S365.716,4.79,363.856,2.93z"/> </g> </g><g> <g> <path d="M320.236,0h-56.45c-27.57,0-50,22.43-50,50v55.477c0,5.523,4.477,10,10,10s10-4.477,10-10V50c0-16.542,13.458-30,30-30 h56.45c5.523,0,10-4.477,10-10S325.759,0,320.236,0z"/> </g> </g><g> <g> <path d="M226.153,427.086h-14c-5.523,0-10,4.477-10,10s4.477,10,10,10h14c5.523,0,10-4.477,10-10S231.676,427.086,226.153,427.086 z"/> </g> </g><g> <g> <path d="M145.586,261.57c-1.86-1.86-4.43-2.93-7.07-2.93c-2.63,0-5.21,1.07-7.07,2.93c-1.86,1.86-2.93,4.44-2.93,7.07 s1.07,5.21,2.93,7.07c1.86,1.86,4.44,2.93,7.07,2.93c2.64,0,5.21-1.07,7.07-2.93c1.87-1.86,2.93-4.44,2.93-7.07 S147.456,263.43,145.586,261.57z"/> </g> </g><g> <g> <path d="M192.926,261.57c-1.86-1.86-4.44-2.93-7.07-2.93c-2.64,0-5.21,1.07-7.07,2.93c-1.87,1.86-2.93,4.43-2.93,7.07 c0,2.63,1.06,5.21,2.93,7.07c1.86,1.86,4.44,2.93,7.07,2.93s5.21-1.07,7.07-2.93s2.93-4.44,2.93-7.07 S194.786,263.43,192.926,261.57z"/> </g> </g><g> <g> <path d="M393.709,89.494c-1.262-18.304-16.017-33.058-34.321-34.32c-10.376-0.718-20.274,2.787-27.854,9.862 c-7.473,6.976-11.76,16.84-11.76,27.061c0,5.523,4.477,10,10,10s10-4.477,10-10c0-4.767,1.92-9.186,5.408-12.441 c3.483-3.251,8.033-4.856,12.831-4.53c8.396,0.579,15.165,7.347,15.744,15.744c0.585,8.485-4.979,15.983-13.231,17.829 c-8.09,1.811-13.74,8.843-13.74,17.102v20.07c0,5.523,4.477,10,10,10s10-4.477,10-10v-18.129 C383.704,123.037,394.933,107.258,393.709,89.494z"/> </g> </g><g> <g> <path d="M363.856,171.84c-1.86-1.86-4.44-2.92-7.07-2.92s-5.21,1.06-7.07,2.92c-1.86,1.87-2.93,4.44-2.93,7.08 c0,2.63,1.07,5.21,2.93,7.07s4.44,2.93,7.07,2.93s5.21-1.07,7.07-2.93s2.93-4.44,2.93-7.07 C366.786,176.28,365.716,173.71,363.856,171.84z"/> </g> </g></symbol><symbol id="linkedin" viewBox="0 0 112.196 112.196"><title>linkedin</title><circle style="fill:#007AB9;" cx="56.098" cy="56.097" r="56.098"/><g> <path style="fill:#F1F2F2;" d="M89.616,60.611v23.128H76.207V62.161c0-5.418-1.936-9.118-6.791-9.118 c-3.705,0-5.906,2.491-6.878,4.903c-0.353,0.862-0.444,2.059-0.444,3.268v22.524H48.684c0,0,0.18-36.546,0-40.329h13.411v5.715 c-0.027,0.045-0.065,0.089-0.089,0.132h0.089v-0.132c1.782-2.742,4.96-6.662,12.085-6.662 C83.002,42.462,89.616,48.226,89.616,60.611L89.616,60.611z M34.656,23.969c-4.587,0-7.588,3.011-7.588,6.967 c0,3.872,2.914,6.97,7.412,6.97h0.087c4.677,0,7.585-3.098,7.585-6.97C42.063,26.98,39.244,23.969,34.656,23.969L34.656,23.969z M27.865,83.739H41.27V43.409H27.865V83.739z"/> </g></symbol><symbol id="facebook" viewBox="0 0 112.196 112.196"><title>facebook</title><circle style="fill:#3B5998;" cx="56.098" cy="56.098" r="56.098"/><path style="fill:#FFFFFF;" d="M70.201,58.294h-10.01v36.672H45.025V58.294h-7.213V45.406h7.213v-8.34 c0-5.964,2.833-15.303,15.301-15.303L71.56,21.81v12.51h-8.151c-1.337,0-3.217,0.668-3.217,3.513v7.585h11.334L70.201,58.294z"/></symbol><symbol id="twitter" viewBox="0 0 112.197 112.197"><title>twitter</title><circle style="fill:#55ACEE;" cx="56.099" cy="56.098" r="56.098"/><g> <path style="fill:#F1F2F2;" d="M90.461,40.316c-2.404,1.066-4.99,1.787-7.702,2.109c2.769-1.659,4.894-4.284,5.897-7.417 c-2.591,1.537-5.462,2.652-8.515,3.253c-2.446-2.605-5.931-4.233-9.79-4.233c-7.404,0-13.409,6.005-13.409,13.409 c0,1.051,0.119,2.074,0.349,3.056c-11.144-0.559-21.025-5.897-27.639-14.012c-1.154,1.98-1.816,4.285-1.816,6.742 c0,4.651,2.369,8.757,5.965,11.161c-2.197-0.069-4.266-0.672-6.073-1.679c-0.001,0.057-0.001,0.114-0.001,0.17 c0,6.497,4.624,11.916,10.757,13.147c-1.124,0.308-2.311,0.471-3.532,0.471c-0.866,0-1.705-0.083-2.523-0.239 c1.706,5.326,6.657,9.203,12.526,9.312c-4.59,3.597-10.371,5.74-16.655,5.74c-1.08,0-2.15-0.063-3.197-0.188 c5.931,3.806,12.981,6.025,20.553,6.025c24.664,0,38.152-20.432,38.152-38.153c0-0.581-0.013-1.16-0.039-1.734 C86.391,45.366,88.664,43.005,90.461,40.316L90.461,40.316z"/> </g></symbol><symbol id="medium" viewBox="0 0 512 512"><title>medium</title><path d="m64 0h384c35.347656 0 64 28.652344 64 64v384c0 35.347656-28.652344 64-64 64h-384c-35.347656 0-64-28.652344-64-64v-384c0-35.347656 28.652344-64 64-64zm0 0" fill="#a8918c"/><path d="m400 160v-32h-74.304688l-69.695312 153.328125-69.695312-153.328125h-74.304688v32h32v192h-32v32h64v-201.34375l80 176.015625 80-176.015625v201.34375h64v-32h-32v-192zm0 0" fill="#fff"/></symbol><symbol id="youtube" viewBox="0 0 461.001 461.001"><title>youtube</title><path style="fill:#F61C0D;" d="M365.257,67.393H95.744C42.866,67.393,0,110.259,0,163.137v134.728 c0,52.878,42.866,95.744,95.744,95.744h269.513c52.878,0,95.744-42.866,95.744-95.744V163.137 C461.001,110.259,418.135,67.393,365.257,67.393z M300.506,237.056l-126.06,60.123c-3.359,1.602-7.239-0.847-7.239-4.568V168.607 c0-3.774,3.982-6.22,7.348-4.514l126.06,63.881C304.363,229.873,304.298,235.248,300.506,237.056z"/></symbol><symbol id="chat" viewBox="0 0 58 58"><title>chat</title><path style="fill:#4DC95B;" d="M53,3.293H5c-2.722,0-5,2.278-5,5v33c0,2.722,2.278,5,5,5h2h6h2v8.414l8.243-9.068l4.999-5.811 c0.36-0.418,0.991-0.466,1.411-0.106c0.418,0.36,0.466,0.992,0.106,1.41l-4.439,5.161H53c2.722,0,5-2.278,5-5v-33 C58,5.571,55.722,3.293,53,3.293z"/></symbol><symbol id="caret-arrow-up" viewBox="0 0 292.362 292.361"><title>caret-arrow-up</title><path d="M286.935,197.287L159.028,69.381c-3.613-3.617-7.895-5.424-12.847-5.424s-9.233,1.807-12.85,5.424L5.424,197.287 C1.807,200.904,0,205.186,0,210.134s1.807,9.233,5.424,12.847c3.621,3.617,7.902,5.425,12.85,5.425h255.813 c4.949,0,9.233-1.808,12.848-5.425c3.613-3.613,5.427-7.898,5.427-12.847S290.548,200.904,286.935,197.287z"/></symbol><symbol id="sort-down" viewBox="0 0 292.362 292.362"><title>sort-down</title><path d="M286.935,69.377c-3.614-3.617-7.898-5.424-12.848-5.424H18.274c-4.952,0-9.233,1.807-12.85,5.424 C1.807,72.998,0,77.279,0,82.228c0,4.948,1.807,9.229,5.424,12.847l127.907,127.907c3.621,3.617,7.902,5.428,12.85,5.428 s9.233-1.811,12.847-5.428L286.935,95.074c3.613-3.617,5.427-7.898,5.427-12.847C292.362,77.279,290.548,72.998,286.935,69.377z"/></symbol><symbol id="github-logo" viewBox="0 0 438.549 438.549"><title>github-logo</title><path d="M409.132,114.573c-19.608-33.596-46.205-60.194-79.798-79.8C295.736,15.166,259.057,5.365,219.271,5.365 c-39.781,0-76.472,9.804-110.063,29.408c-33.596,19.605-60.192,46.204-79.8,79.8C9.803,148.168,0,184.854,0,224.63 c0,47.78,13.94,90.745,41.827,128.906c27.884,38.164,63.906,64.572,108.063,79.227c5.14,0.954,8.945,0.283,11.419-1.996 c2.475-2.282,3.711-5.14,3.711-8.562c0-0.571-0.049-5.708-0.144-15.417c-0.098-9.709-0.144-18.179-0.144-25.406l-6.567,1.136 c-4.187,0.767-9.469,1.092-15.846,1c-6.374-0.089-12.991-0.757-19.842-1.999c-6.854-1.231-13.229-4.086-19.13-8.559 c-5.898-4.473-10.085-10.328-12.56-17.556l-2.855-6.57c-1.903-4.374-4.899-9.233-8.992-14.559 c-4.093-5.331-8.232-8.945-12.419-10.848l-1.999-1.431c-1.332-0.951-2.568-2.098-3.711-3.429c-1.142-1.331-1.997-2.663-2.568-3.997 c-0.572-1.335-0.098-2.43,1.427-3.289c1.525-0.859,4.281-1.276,8.28-1.276l5.708,0.853c3.807,0.763,8.516,3.042,14.133,6.851 c5.614,3.806,10.229,8.754,13.846,14.842c4.38,7.806,9.657,13.754,15.846,17.847c6.184,4.093,12.419,6.136,18.699,6.136 c6.28,0,11.704-0.476,16.274-1.423c4.565-0.952,8.848-2.383,12.847-4.285c1.713-12.758,6.377-22.559,13.988-29.41 c-10.848-1.14-20.601-2.857-29.264-5.14c-8.658-2.286-17.605-5.996-26.835-11.14c-9.235-5.137-16.896-11.516-22.985-19.126 c-6.09-7.614-11.088-17.61-14.987-29.979c-3.901-12.374-5.852-26.648-5.852-42.826c0-23.035,7.52-42.637,22.557-58.817 c-7.044-17.318-6.379-36.732,1.997-58.24c5.52-1.715,13.706-0.428,24.554,3.853c10.85,4.283,18.794,7.952,23.84,10.994 c5.046,3.041,9.089,5.618,12.135,7.708c17.705-4.947,35.976-7.421,54.818-7.421s37.117,2.474,54.823,7.421l10.849-6.849 c7.419-4.57,16.18-8.758,26.262-12.565c10.088-3.805,17.802-4.853,23.134-3.138c8.562,21.509,9.325,40.922,2.279,58.24 c15.036,16.18,22.559,35.787,22.559,58.817c0,16.178-1.958,30.497-5.853,42.966c-3.9,12.471-8.941,22.457-15.125,29.979 c-6.191,7.521-13.901,13.85-23.131,18.986c-9.232,5.14-18.182,8.85-26.84,11.136c-8.662,2.286-18.415,4.004-29.263,5.146 c9.894,8.562,14.842,22.077,14.842,40.539v60.237c0,3.422,1.19,6.279,3.572,8.562c2.379,2.279,6.136,2.95,11.276,1.995 c44.163-14.653,80.185-41.062,108.068-79.226c27.88-38.161,41.825-81.126,41.825-128.906 C438.536,184.851,428.728,148.168,409.132,114.573z"/></symbol><symbol id="plus" viewBox="0 0 52 52"><title>plus</title><path d="M26,0C11.664,0,0,11.663,0,26s11.664,26,26,26s26-11.663,26-26S40.336,0,26,0z M26,50C12.767,50,2,39.233,2,26 S12.767,2,26,2s24,10.767,24,24S39.233,50,26,50z"/><path d="M38.5,25H27V14c0-0.553-0.448-1-1-1s-1,0.447-1,1v11H13.5c-0.552,0-1,0.447-1,1s0.448,1,1,1H25v12c0,0.553,0.448,1,1,1 s1-0.447,1-1V27h11.5c0.552,0,1-0.447,1-1S39.052,25,38.5,25z"/></symbol><symbol id="remove" viewBox="1 1 511.99998 511.99998"><title>remove</title><path d="m256 0c-141.386719 0-256 114.613281-256 256s114.613281 256 256 256 256-114.613281 256-256c-.167969-141.316406-114.683594-255.832031-256-256zm0 480c-123.710938 0-224-100.289062-224-224s100.289062-224 224-224 224 100.289062 224 224c-.132812 123.65625-100.34375 223.867188-224 224zm0 0"/><path d="m380.449219 131.550781c-6.25-6.246093-16.378907-6.246093-22.625 0l-101.824219 101.824219-101.824219-101.824219c-6.140625-6.355469-16.269531-6.53125-22.625-.390625-6.355469 6.136719-6.53125 16.265625-.390625 22.621094.128906.132812.257813.265625.390625.394531l101.824219 101.824219-101.824219 101.824219c-6.355469 6.136719-6.53125 16.265625-.390625 22.625 6.136719 6.355469 16.265625 6.53125 22.621094.390625.132812-.128906.265625-.257813.394531-.390625l101.824219-101.824219 101.824219 101.824219c6.355469 6.136719 16.484375 5.960937 22.621093-.394531 5.988282-6.199219 5.988282-16.03125 0-22.230469l-101.820312-101.824219 101.824219-101.824219c6.246093-6.246093 6.246093-16.375 0-22.625zm0 0"/></symbol></svg>